<svg width="320" height="220" viewBox="0 0 320 220" fill="none" xmlns="http://www.w3.org/2000/svg">
  <rect width="320" height="220" rx="32" fill="#ffffff"/>
  <path d="M41 62C41 44.9086 55.9086 30 73 30H247C264.091 30 279 44.9086 279 62V158C279 175.091 264.091 190 247 190H165L137 216C132 220 124 220 119 216L91 190H73C55.9086 190 41 175.091 41 158V62Z" fill="#F47B20"/>
  <path d="M48 62C48 49.2977 58.2977 39 71 39H249C261.702 39 272 49.2977 272 62V140C272 151.046 264.046 160.703 253.447 164.431L181 188.673L155.337 210.44C152.797 212.4 149.504 212.224 147.226 210.03L118.737 184.972L88.553 164.426C79.9073 157.979 48 131.26 48 62Z" fill="#1E9E4A" opacity="0.95"/>
  <path d="M100 55C100 41.7452 110.745 31 124 31H144C157.255 31 168 41.7452 168 55V165C168 178.255 157.255 189 144 189H124C110.745 189 100 178.255 100 165V55Z" fill="#FFFFFF"/>
  <path d="M178 52C178 38.7452 188.745 28 202 28H222C235.255 28 246 38.7452 246 52V176C246 189.255 235.255 200 222 200H202C188.745 200 178 189.255 178 176V52Z" fill="#FFFFFF"/>
  <path d="M130 76C130 60.536 142.536 48 158 48H188C203.464 48 216 60.536 216 76V144C216 159.464 203.464 172 188 172H158C142.536 172 130 159.464 130 144V76Z" fill="#6A1B9A"/>
  <text x="150" y="123" text-anchor="middle" dominant-baseline="middle" fill="white" font-family="Inter, sans-serif" font-size="72" font-weight="800">K</text>
  <path d="M88 88C88 79.1634 95.1634 72 104 72H112C120.837 72 128 79.1634 128 88V132C128 140.837 120.837 148 112 148H104C95.1634 148 88 140.837 88 132V88Z" fill="#FFFFFF"/>
</svg>